# xmcd
# Track frame offsets:
# 150
# 13442
# 28652
# 41507
# 52645
# 67772
# 83075
# 98940
# 111990
# 125872
# 146210
# 162557
# 181937
# 195340
# 209530
# 224640
# 236862
# 249457
# 266247
# 279410
#
# Disc length: 3871 seconds
# Revision: 0
# Processed by: cddbd v1.4PL0 Copyright (c) Steve Scherf et al.
# Submitted via: VisiTrax 2.9.5.180 - For more info visit www.synapsa.com
#
DISCID=330f1d14
DTITLE=Leon Rausch - Close to you
DYEAR=1998
DGENRE=
TTITLE0=Close to you
TTITLE1=That would sure go good
TTITLE2=In the misty moonlight
TTITLE3=Hotline
TTITLE4=The little Blue Bonnet Bar
TTITLE5=Ruidoso
TTITLE6=You don't know me
TTITLE7=You're from Texas
TTITLE8=I'm a music man
TTITLE9=Bibbles in my beer
TTITLE10=Inseparable from my heart
TTITLE11=The day you left me
TTITLE12=I don't care
TTITLE13=Tucumcari woman
TTITLE14=Take me in your arms and hold me
TTITLE15=Don't be ashamed of your age
TTITLE16=The heebee jeebee blues
TTITLE17=China doll
TTITLE18=Two glasses, Joe
TTITLE19=On silver wings to San Antone
EXTD=
EXTT0=
EXTT1=
EXTT2=
EXTT3=
EXTT4=
EXTT5=
EXTT6=
EXTT7=
EXTT8=
EXTT9=
EXTT10=
EXTT11=
EXTT12=
EXTT13=
EXTT14=
EXTT15=
EXTT16=
EXTT17=
EXTT18=
EXTT19=
PLAYORDER=
